<svg id="visual" viewBox="0 0 900 675" width="900" height="675" xmlns="http://www.w3.org/2000/svg" xmlns:xlink="http://www.w3.org/1999/xlink" version="1.1"><rect x="0" y="0" width="900" height="675" fill="#f5f5f5"></rect><defs><linearGradient id="grad1_0" x1="25%" y1="0%" x2="100%" y2="100%"><stop offset="23.333333333333336%" stop-color="#f5f5f5" stop-opacity="1"></stop><stop offset="76.66666666666666%" stop-color="#f5f5f5" stop-opacity="1"></stop></linearGradient></defs><defs><linearGradient id="grad2_0" x1="0%" y1="0%" x2="75%" y2="100%"><stop offset="23.333333333333336%" stop-color="#f5f5f5" stop-opacity="1"></stop><stop offset="76.66666666666666%" stop-color="#f5f5f5" stop-opacity="1"></stop></linearGradient></defs><g transform="translate(900, 0)"><path d="M0 225C-18.3 218 -36.7 211 -55.1 205.7C-73.6 200.5 -92.2 197 -109 188.8C-125.8 180.5 -140.7 167.5 -153.4 153.4C-166.2 139.4 -176.7 124.2 -187.9 108.5C-199.1 92.8 -211 76.4 -217.3 58.2C-223.6 40 -224.3 20 -225 0L0 0Z" fill="#f34643"></path></g><g transform="translate(0, 675)"><path d="M0 -225C19.5 -221.6 39.1 -218.2 56.7 -211.5C74.3 -204.9 89.9 -195.1 108 -187.1C126.1 -179 146.7 -172.8 159.1 -159.1C171.5 -145.4 175.6 -124.2 184.5 -106.5C193.3 -88.8 206.9 -74.6 214.4 -57.5C222 -40.3 223.5 -20.1 225 0L0 0Z" fill="#f34643"></path></g></svg>